<mxfile host="55b9a1f9-0b0e-4ef1-ac15-af7f7da74dde" modified="2020-07-29T10:01:59.358Z" agent="5.0 (Windows NT 10.0; Win64; x64) AppleWebKit/537.36 (KHTML, like Gecko) Code/1.47.1 Chrome/78.0.3904.130 Electron/7.3.2 Safari/537.36" etag="vLOG9hDm7Vkm-arMCi5g" version="13.1.3">
    <diagram id="Auz2V2DGNx6Ck1RNDolE" name="Page-1">
        <mxGraphModel dx="1376" dy="912" grid="1" gridSize="10" guides="1" tooltips="1" connect="1" arrows="1" fold="1" page="1" pageScale="1" pageWidth="827" pageHeight="1169" math="0" shadow="0">
            <root>
                <mxCell id="0"/>
                <mxCell id="1" parent="0"/>
                <mxCell id="MTo8XYZHSVrl4270Ef5i-3" style="edgeStyle=orthogonalEdgeStyle;rounded=0;orthogonalLoop=1;jettySize=auto;html=1;entryX=0;entryY=0;entryDx=0;entryDy=30;entryPerimeter=0;" parent="1" source="MTo8XYZHSVrl4270Ef5i-1" target="MTo8XYZHSVrl4270Ef5i-2" edge="1">
                    <mxGeometry relative="1" as="geometry"/>
                </mxCell>
                <mxCell id="MTo8XYZHSVrl4270Ef5i-5" style="edgeStyle=orthogonalEdgeStyle;rounded=0;orthogonalLoop=1;jettySize=auto;html=1;entryX=0;entryY=0;entryDx=0;entryDy=30;entryPerimeter=0;" parent="1" source="MTo8XYZHSVrl4270Ef5i-1" target="MTo8XYZHSVrl4270Ef5i-4" edge="1">
                    <mxGeometry relative="1" as="geometry"/>
                </mxCell>
                <mxCell id="MTo8XYZHSVrl4270Ef5i-1" value="original boards" style="rounded=0;whiteSpace=wrap;html=1;" parent="1" vertex="1">
                    <mxGeometry x="20" y="170" width="60" height="60" as="geometry"/>
                </mxCell>
                <mxCell id="MTo8XYZHSVrl4270Ef5i-24" style="edgeStyle=orthogonalEdgeStyle;rounded=0;orthogonalLoop=1;jettySize=auto;html=1;entryX=0;entryY=0.5;entryDx=0;entryDy=0;" parent="1" source="MTo8XYZHSVrl4270Ef5i-2" target="MTo8XYZHSVrl4270Ef5i-18" edge="1">
                    <mxGeometry relative="1" as="geometry"/>
                </mxCell>
                <mxCell id="MTo8XYZHSVrl4270Ef5i-2" value="-2 paths" style="shape=cube;whiteSpace=wrap;html=1;boundedLbl=1;backgroundOutline=1;darkOpacity=0.05;darkOpacity2=0.1;" parent="1" vertex="1">
                    <mxGeometry x="600" y="170" width="120" height="80" as="geometry"/>
                </mxCell>
                <mxCell id="MTo8XYZHSVrl4270Ef5i-8" style="edgeStyle=orthogonalEdgeStyle;rounded=0;orthogonalLoop=1;jettySize=auto;html=1;" parent="1" source="MTo8XYZHSVrl4270Ef5i-4" target="MTo8XYZHSVrl4270Ef5i-9" edge="1">
                    <mxGeometry relative="1" as="geometry">
                        <mxPoint x="310" y="330" as="targetPoint"/>
                    </mxGeometry>
                </mxCell>
                <mxCell id="MTo8XYZHSVrl4270Ef5i-4" value="-1 paths" style="shape=cube;whiteSpace=wrap;html=1;boundedLbl=1;backgroundOutline=1;darkOpacity=0.05;darkOpacity2=0.1;" parent="1" vertex="1">
                    <mxGeometry x="150" y="290" width="120" height="80" as="geometry"/>
                </mxCell>
                <mxCell id="2" value="-1" style="text;html=1;align=center;verticalAlign=middle;resizable=0;points=[];autosize=1;" parent="1" vertex="1">
                    <mxGeometry x="195" y="110" width="30" height="20" as="geometry"/>
                </mxCell>
                <mxCell id="MTo8XYZHSVrl4270Ef5i-6" value="0" style="text;html=1;align=center;verticalAlign=middle;resizable=0;points=[];autosize=1;" parent="1" vertex="1">
                    <mxGeometry x="40" y="110" width="20" height="20" as="geometry"/>
                </mxCell>
                <mxCell id="MTo8XYZHSVrl4270Ef5i-7" value="count" style="text;html=1;align=center;verticalAlign=middle;resizable=0;points=[];autosize=1;" parent="1" vertex="1">
                    <mxGeometry x="30" y="60" width="40" height="20" as="geometry"/>
                </mxCell>
                <mxCell id="MTo8XYZHSVrl4270Ef5i-11" style="edgeStyle=orthogonalEdgeStyle;rounded=0;orthogonalLoop=1;jettySize=auto;html=1;" parent="1" source="MTo8XYZHSVrl4270Ef5i-9" target="MTo8XYZHSVrl4270Ef5i-10" edge="1">
                    <mxGeometry relative="1" as="geometry"/>
                </mxCell>
                <mxCell id="MTo8XYZHSVrl4270Ef5i-9" value="trim&lt;br&gt;top n" style="triangle;whiteSpace=wrap;html=1;" parent="1" vertex="1">
                    <mxGeometry x="300" y="290" width="60" height="80" as="geometry"/>
                </mxCell>
                <mxCell id="MTo8XYZHSVrl4270Ef5i-15" style="edgeStyle=orthogonalEdgeStyle;rounded=0;orthogonalLoop=1;jettySize=auto;html=1;entryX=0;entryY=0;entryDx=0;entryDy=30;entryPerimeter=0;" parent="1" source="MTo8XYZHSVrl4270Ef5i-10" target="MTo8XYZHSVrl4270Ef5i-12" edge="1">
                    <mxGeometry relative="1" as="geometry">
                        <Array as="points">
                            <mxPoint x="490" y="330"/>
                            <mxPoint x="490" y="470"/>
                        </Array>
                    </mxGeometry>
                </mxCell>
                <mxCell id="MTo8XYZHSVrl4270Ef5i-17" style="edgeStyle=orthogonalEdgeStyle;rounded=0;orthogonalLoop=1;jettySize=auto;html=1;entryX=0;entryY=0;entryDx=0;entryDy=30;entryPerimeter=0;" parent="1" source="MTo8XYZHSVrl4270Ef5i-10" target="MTo8XYZHSVrl4270Ef5i-13" edge="1">
                    <mxGeometry relative="1" as="geometry"/>
                </mxCell>
                <mxCell id="MTo8XYZHSVrl4270Ef5i-10" value="boards" style="rounded=0;whiteSpace=wrap;html=1;" parent="1" vertex="1">
                    <mxGeometry x="400" y="300" width="60" height="60" as="geometry"/>
                </mxCell>
                <mxCell id="MTo8XYZHSVrl4270Ef5i-33" style="edgeStyle=orthogonalEdgeStyle;rounded=0;orthogonalLoop=1;jettySize=auto;html=1;entryX=0;entryY=0.5;entryDx=0;entryDy=0;" parent="1" source="MTo8XYZHSVrl4270Ef5i-12" target="MTo8XYZHSVrl4270Ef5i-31" edge="1">
                    <mxGeometry relative="1" as="geometry"/>
                </mxCell>
                <mxCell id="MTo8XYZHSVrl4270Ef5i-12" value="-2 paths" style="shape=cube;whiteSpace=wrap;html=1;boundedLbl=1;backgroundOutline=1;darkOpacity=0.05;darkOpacity2=0.1;" parent="1" vertex="1">
                    <mxGeometry x="1020" y="440" width="120" height="80" as="geometry"/>
                </mxCell>
                <mxCell id="MTo8XYZHSVrl4270Ef5i-21" style="edgeStyle=orthogonalEdgeStyle;rounded=0;orthogonalLoop=1;jettySize=auto;html=1;entryX=0;entryY=0.5;entryDx=0;entryDy=0;" parent="1" source="MTo8XYZHSVrl4270Ef5i-13" target="MTo8XYZHSVrl4270Ef5i-18" edge="1">
                    <mxGeometry relative="1" as="geometry"/>
                </mxCell>
                <mxCell id="MTo8XYZHSVrl4270Ef5i-13" value="-1 paths" style="shape=cube;whiteSpace=wrap;html=1;boundedLbl=1;backgroundOutline=1;darkOpacity=0.05;darkOpacity2=0.1;" parent="1" vertex="1">
                    <mxGeometry x="600" y="300" width="120" height="80" as="geometry"/>
                </mxCell>
                <mxCell id="MTo8XYZHSVrl4270Ef5i-16" value="-2 paths" style="shape=cube;whiteSpace=wrap;html=1;boundedLbl=1;backgroundOutline=1;darkOpacity=0.05;darkOpacity2=0.1;" parent="1" vertex="1">
                    <mxGeometry x="1460" y="180" width="120" height="80" as="geometry"/>
                </mxCell>
                <mxCell id="MTo8XYZHSVrl4270Ef5i-25" style="edgeStyle=orthogonalEdgeStyle;rounded=0;orthogonalLoop=1;jettySize=auto;html=1;entryX=0;entryY=0.5;entryDx=0;entryDy=0;" parent="1" source="MTo8XYZHSVrl4270Ef5i-18" target="MTo8XYZHSVrl4270Ef5i-22" edge="1">
                    <mxGeometry relative="1" as="geometry"/>
                </mxCell>
                <mxCell id="MTo8XYZHSVrl4270Ef5i-18" value="trim&lt;br&gt;top n" style="triangle;whiteSpace=wrap;html=1;" parent="1" vertex="1">
                    <mxGeometry x="810" y="170" width="60" height="80" as="geometry"/>
                </mxCell>
                <mxCell id="MTo8XYZHSVrl4270Ef5i-27" style="edgeStyle=orthogonalEdgeStyle;rounded=0;orthogonalLoop=1;jettySize=auto;html=1;entryX=0;entryY=0;entryDx=0;entryDy=30;entryPerimeter=0;" parent="1" source="MTo8XYZHSVrl4270Ef5i-22" target="MTo8XYZHSVrl4270Ef5i-16" edge="1">
                    <mxGeometry relative="1" as="geometry"/>
                </mxCell>
                <mxCell id="MTo8XYZHSVrl4270Ef5i-30" style="edgeStyle=orthogonalEdgeStyle;rounded=0;orthogonalLoop=1;jettySize=auto;html=1;entryX=0;entryY=0;entryDx=0;entryDy=30;entryPerimeter=0;" parent="1" source="MTo8XYZHSVrl4270Ef5i-22" target="MTo8XYZHSVrl4270Ef5i-28" edge="1">
                    <mxGeometry relative="1" as="geometry"/>
                </mxCell>
                <mxCell id="MTo8XYZHSVrl4270Ef5i-22" value="boards" style="rounded=0;whiteSpace=wrap;html=1;" parent="1" vertex="1">
                    <mxGeometry x="910" y="180" width="60" height="60" as="geometry"/>
                </mxCell>
                <mxCell id="MTo8XYZHSVrl4270Ef5i-23" value="-2" style="text;html=1;align=center;verticalAlign=middle;resizable=0;points=[];autosize=1;" parent="1" vertex="1">
                    <mxGeometry x="635" y="110" width="30" height="20" as="geometry"/>
                </mxCell>
                <mxCell id="MTo8XYZHSVrl4270Ef5i-32" style="edgeStyle=orthogonalEdgeStyle;rounded=0;orthogonalLoop=1;jettySize=auto;html=1;entryX=0;entryY=0.5;entryDx=0;entryDy=0;" parent="1" source="MTo8XYZHSVrl4270Ef5i-28" target="MTo8XYZHSVrl4270Ef5i-31" edge="1">
                    <mxGeometry relative="1" as="geometry"/>
                </mxCell>
                <mxCell id="MTo8XYZHSVrl4270Ef5i-28" value="-1 paths" style="shape=cube;whiteSpace=wrap;html=1;boundedLbl=1;backgroundOutline=1;darkOpacity=0.05;darkOpacity2=0.1;" parent="1" vertex="1">
                    <mxGeometry x="1020" y="310" width="120" height="80" as="geometry"/>
                </mxCell>
                <mxCell id="MTo8XYZHSVrl4270Ef5i-35" style="edgeStyle=orthogonalEdgeStyle;rounded=0;orthogonalLoop=1;jettySize=auto;html=1;entryX=0;entryY=0.5;entryDx=0;entryDy=0;" parent="1" source="MTo8XYZHSVrl4270Ef5i-31" target="MTo8XYZHSVrl4270Ef5i-34" edge="1">
                    <mxGeometry relative="1" as="geometry"/>
                </mxCell>
                <mxCell id="MTo8XYZHSVrl4270Ef5i-31" value="trim&lt;br&gt;top n" style="triangle;whiteSpace=wrap;html=1;" parent="1" vertex="1">
                    <mxGeometry x="1220" y="380" width="60" height="80" as="geometry"/>
                </mxCell>
                <mxCell id="MTo8XYZHSVrl4270Ef5i-34" value="boards" style="rounded=0;whiteSpace=wrap;html=1;" parent="1" vertex="1">
                    <mxGeometry x="1330" y="390" width="60" height="60" as="geometry"/>
                </mxCell>
                <mxCell id="MTo8XYZHSVrl4270Ef5i-36" value="-3" style="text;html=1;align=center;verticalAlign=middle;resizable=0;points=[];autosize=1;" parent="1" vertex="1">
                    <mxGeometry x="1065" y="110" width="30" height="20" as="geometry"/>
                </mxCell>
                <mxCell id="MTo8XYZHSVrl4270Ef5i-37" value="-4" style="text;html=1;align=center;verticalAlign=middle;resizable=0;points=[];autosize=1;" parent="1" vertex="1">
                    <mxGeometry x="1505" y="110" width="30" height="20" as="geometry"/>
                </mxCell>
                <mxCell id="MTo8XYZHSVrl4270Ef5i-38" value="board&lt;br&gt;memory&lt;br&gt;0" style="rounded=0;whiteSpace=wrap;html=1;" parent="1" vertex="1">
                    <mxGeometry x="225" y="610" width="70" height="80" as="geometry"/>
                </mxCell>
                <mxCell id="MTo8XYZHSVrl4270Ef5i-39" value="memory" style="text;html=1;strokeColor=none;fillColor=none;align=center;verticalAlign=middle;whiteSpace=wrap;rounded=0;" parent="1" vertex="1">
                    <mxGeometry x="175" y="575" width="40" height="20" as="geometry"/>
                </mxCell>
                <mxCell id="MTo8XYZHSVrl4270Ef5i-40" value="board&lt;br&gt;memory&lt;br&gt;1" style="rounded=0;whiteSpace=wrap;html=1;" parent="1" vertex="1">
                    <mxGeometry x="295" y="610" width="70" height="80" as="geometry"/>
                </mxCell>
                <mxCell id="MTo8XYZHSVrl4270Ef5i-41" value="internal&lt;br&gt;variables" style="rounded=0;whiteSpace=wrap;html=1;" parent="1" vertex="1">
                    <mxGeometry x="155" y="610" width="70" height="80" as="geometry"/>
                </mxCell>
                <mxCell id="MTo8XYZHSVrl4270Ef5i-42" value="path pool 0" style="rounded=0;whiteSpace=wrap;html=1;" parent="1" vertex="1">
                    <mxGeometry x="365" y="610" width="260" height="80" as="geometry"/>
                </mxCell>
                <mxCell id="MTo8XYZHSVrl4270Ef5i-43" value="path pool 1" style="rounded=0;whiteSpace=wrap;html=1;" parent="1" vertex="1">
                    <mxGeometry x="625" y="610" width="260" height="80" as="geometry"/>
                </mxCell>
                <mxCell id="MTo8XYZHSVrl4270Ef5i-44" value="path pool 2" style="rounded=0;whiteSpace=wrap;html=1;" parent="1" vertex="1">
                    <mxGeometry x="885" y="610" width="265" height="80" as="geometry"/>
                </mxCell>
                <mxCell id="MTo8XYZHSVrl4270Ef5i-45" value="events" style="text;html=1;align=center;verticalAlign=middle;resizable=0;points=[];autosize=1;" parent="1" vertex="1">
                    <mxGeometry x="90" y="700" width="50" height="20" as="geometry"/>
                </mxCell>
                <mxCell id="3" value="R" style="text;html=1;align=center;verticalAlign=middle;resizable=0;points=[];autosize=1;" vertex="1" parent="1">
                    <mxGeometry x="250" y="700" width="20" height="20" as="geometry"/>
                </mxCell>
                <mxCell id="4" value="W" style="text;html=1;align=center;verticalAlign=middle;resizable=0;points=[];autosize=1;" vertex="1" parent="1">
                    <mxGeometry x="480" y="700" width="30" height="20" as="geometry"/>
                </mxCell>
                <mxCell id="5" value="W" style="text;html=1;align=center;verticalAlign=middle;resizable=0;points=[];autosize=1;" vertex="1" parent="1">
                    <mxGeometry x="740" y="700" width="30" height="20" as="geometry"/>
                </mxCell>
                <mxCell id="6" value="W" style="text;html=1;align=center;verticalAlign=middle;resizable=0;points=[];autosize=1;" vertex="1" parent="1">
                    <mxGeometry x="315" y="740" width="30" height="20" as="geometry"/>
                </mxCell>
                <mxCell id="7" value="R" style="text;html=1;align=center;verticalAlign=middle;resizable=0;points=[];autosize=1;" vertex="1" parent="1">
                    <mxGeometry x="745" y="740" width="20" height="20" as="geometry"/>
                </mxCell>
                <mxCell id="8" value="R" style="text;html=1;align=center;verticalAlign=middle;resizable=0;points=[];autosize=1;" vertex="1" parent="1">
                    <mxGeometry x="485" y="820" width="20" height="20" as="geometry"/>
                </mxCell>
                <mxCell id="9" value="R" style="text;html=1;align=center;verticalAlign=middle;resizable=0;points=[];autosize=1;" vertex="1" parent="1">
                    <mxGeometry x="320" y="780" width="20" height="20" as="geometry"/>
                </mxCell>
                <mxCell id="10" value="W" style="text;html=1;align=center;verticalAlign=middle;resizable=0;points=[];autosize=1;" vertex="1" parent="1">
                    <mxGeometry x="1002.5" y="780" width="30" height="20" as="geometry"/>
                </mxCell>
                <mxCell id="11" value="R" style="text;html=1;align=center;verticalAlign=middle;resizable=0;points=[];autosize=1;" vertex="1" parent="1">
                    <mxGeometry x="1007.5" y="820" width="20" height="20" as="geometry"/>
                </mxCell>
                <mxCell id="12" value="W" style="text;html=1;align=center;verticalAlign=middle;resizable=0;points=[];autosize=1;" vertex="1" parent="1">
                    <mxGeometry x="740" y="780" width="30" height="20" as="geometry"/>
                </mxCell>
                <mxCell id="13" value="W" style="text;html=1;align=center;verticalAlign=middle;resizable=0;points=[];autosize=1;" vertex="1" parent="1">
                    <mxGeometry x="245" y="820" width="30" height="20" as="geometry"/>
                </mxCell>
                <mxCell id="14" value="R" style="text;html=1;align=center;verticalAlign=middle;resizable=0;points=[];autosize=1;" vertex="1" parent="1">
                    <mxGeometry x="250" y="860" width="20" height="20" as="geometry"/>
                </mxCell>
                <mxCell id="15" value="W" style="text;html=1;align=center;verticalAlign=middle;resizable=0;points=[];autosize=1;" vertex="1" parent="1">
                    <mxGeometry x="480" y="860" width="30" height="20" as="geometry"/>
                </mxCell>
                <mxCell id="16" value="W" style="text;html=1;align=center;verticalAlign=middle;resizable=0;points=[];autosize=1;" vertex="1" parent="1">
                    <mxGeometry x="1002.5" y="860" width="30" height="20" as="geometry"/>
                </mxCell>
                <mxCell id="17" value="this is an example and honestly i dont know what im doing rn" style="text;html=1;align=center;verticalAlign=middle;resizable=0;points=[];autosize=1;" vertex="1" parent="1">
                    <mxGeometry x="337" y="955" width="340" height="20" as="geometry"/>
                </mxCell>
            </root>
        </mxGraphModel>
    </diagram>
</mxfile>